<svg width="24" height="25" viewBox="0 0 24 25" fill="none" xmlns="http://www.w3.org/2000/svg">
<g clip-path="url(#clip0_0_2617)">
<g clip-path="url(#clip1_0_2617)">
<g clip-path="url(#clip2_0_2617)">
<path d="M17.7652 17.5323H15.7796V16.2527H7.83733V17.5323H5.85174V16.2527H1.88059V22.6508H21.7364V16.2527H17.7652V17.5323Z" fill="#171614"/>
<path fill-rule="evenodd" clip-rule="evenodd" d="M19.7508 7.29537H16.7724V4.73615C16.7724 3.32858 15.8789 2.17693 14.7869 2.17693H8.83012C7.73805 2.17693 6.84453 3.32858 6.84453 4.73615V7.29537H3.86617C2.7741 7.29537 1.88059 8.44702 1.88059 9.85459V14.973H5.85174V12.4138H7.83733V14.973H15.7796V12.4138H17.7652V14.973H21.7364V9.85459C21.7364 8.44702 20.8429 7.29537 19.7508 7.29537H19.7508ZM14.7869 7.29537H8.83012V4.73615H14.7869V7.29537Z" fill="#171614"/>
</g>
</g>
</g>
<defs>
<clipPath id="clip0_0_2617">
<rect width="23.4058" height="24.2128" fill="white" transform="scale(1.02541)"/>
</clipPath>
<clipPath id="clip1_0_2617">
<rect width="19.3638" height="19.9665" fill="white" transform="translate(1.88059 2.17693) scale(1.02541)"/>
</clipPath>
<clipPath id="clip2_0_2617">
<rect width="19.3638" height="19.9665" fill="white" transform="translate(1.88059 2.17693) scale(1.02541)"/>
</clipPath>
</defs>
</svg>
