<svg width="26" height="26" viewBox="0 0 26 26" fill="none" xmlns="http://www.w3.org/2000/svg">
<g clip-path="url(#clip0_0_1214)">
<path d="M18.9278 6.66012V18.8109C18.9278 21.146 16.4621 23.0373 13.4178 23.0373C10.3736 23.0373 7.90783 21.146 7.90783 18.8109V5.60352C7.90783 4.14542 9.45062 2.96204 11.3516 2.96204C13.2525 2.96204 14.7953 4.14542 14.7953 5.60352V16.6977C14.7953 17.2788 14.1754 17.7543 13.4178 17.7543C12.6602 17.7543 12.0403 17.2788 12.0403 16.6977V6.66012H9.97409V16.6977C9.97409 18.1558 11.5169 19.3392 13.4178 19.3392C15.3188 19.3392 16.8616 18.1558 16.8616 16.6977V5.60352C16.8616 3.26846 14.3958 1.37716 11.3516 1.37716C8.3073 1.37716 5.84158 3.26846 5.84158 5.60352V18.8109C5.84158 22.0229 9.23023 24.6221 13.4178 24.6221C17.6054 24.6221 20.9941 22.0229 20.9941 18.8109V6.66012H18.9278Z" fill="black"/>
</g>
<defs>
<clipPath id="clip0_0_1214">
<rect width="25.1664" height="25.1664" fill="white" transform="scale(1.03312)"/>
</clipPath>
</defs>
</svg>
