<svg width="26" height="26" viewBox="0 0 26 26" fill="none" xmlns="http://www.w3.org/2000/svg">
<g clip-path="url(#clip0_0_1532)">
<path d="M18.9273 6.66009V18.8108C18.9273 21.1459 16.4615 23.0372 13.4173 23.0372C10.373 23.0372 7.9073 21.1459 7.9073 18.8108V5.6035C7.9073 4.14541 9.45009 2.96203 11.351 2.96203C13.252 2.96203 14.7948 4.14541 14.7948 5.6035V16.6977C14.7948 17.2788 14.1749 17.7542 13.4173 17.7542C12.6596 17.7542 12.0398 17.2788 12.0398 16.6977V6.66009H9.97355V16.6977C9.97355 18.1557 11.5163 19.3391 13.4173 19.3391C15.3182 19.3391 16.861 18.1558 16.861 16.6977V5.6035C16.861 3.26845 14.3953 1.37716 11.351 1.37716C8.30676 1.37716 5.84106 3.26845 5.84106 5.6035V18.8108C5.84106 22.0229 9.22969 24.6221 13.4173 24.6221C17.6049 24.6221 20.9935 22.0229 20.9935 18.8108V6.66009H18.9273Z" fill="black"/>
</g>
<defs>
<clipPath id="clip0_0_1532">
<rect width="25.1664" height="25.1664" fill="white" transform="scale(1.03312)"/>
</clipPath>
</defs>
</svg>
