<svg width="26" height="26" viewBox="0 0 26 26" fill="none" xmlns="http://www.w3.org/2000/svg">
<path fill-rule="evenodd" clip-rule="evenodd" d="M16.792 15.167H15.9362L15.6329 14.8745C16.6945 13.6395 17.3337 12.0362 17.3337 10.2921C17.3337 6.40289 14.1812 3.25041 10.2921 3.25041C6.40289 3.25041 3.25041 6.40289 3.25041 10.2921C3.25041 14.1812 6.40289 17.3337 10.2921 17.3337C12.0362 17.3337 13.6395 16.6945 14.8745 15.6329L15.167 15.9362V16.792L20.5837 22.1978L22.1978 20.5837L16.792 15.167ZM10.292 15.167C7.59455 15.167 5.41705 12.9895 5.41705 10.2921C5.41705 7.59456 7.59454 5.41706 10.292 5.41706C12.9895 5.41706 15.167 7.59455 15.167 10.2921C15.167 12.9895 12.9895 15.167 10.292 15.167Z" fill="#22211E"/>
</svg>
