<svg width="25" height="25" viewBox="0 0 25 25" fill="none" xmlns="http://www.w3.org/2000/svg">
<g clip-path="url(#clip0_0_3730)">
<path fill-rule="evenodd" clip-rule="evenodd" d="M12.4994 2.9942C7.25248 2.9942 2.99408 7.2526 2.99408 12.4996C2.99408 17.7465 7.25248 22.0049 12.4994 22.0049C17.7464 22.0049 22.0048 17.7465 22.0048 12.4996C22.0048 7.2526 17.7464 2.9942 12.4994 2.9942ZM12.4994 18.678C11.7105 18.678 11.0736 18.0412 11.0736 17.2522H13.9252C13.9252 18.0412 13.2884 18.678 12.4994 18.678ZM17.2521 16.3017H7.74675V15.3512L8.69728 14.4006V11.9197C8.69728 9.9046 9.67633 8.19364 11.5489 7.74688V7.27161C11.5489 6.7298 11.9576 6.32108 12.4994 6.32108C13.0412 6.32108 13.4499 6.72981 13.4499 7.27161V7.74688C15.3225 8.19364 16.3016 9.9141 16.3016 11.9197V14.4006L17.2521 15.3512L17.2521 16.3017Z" fill="#171614"/>
</g>
<defs>
<clipPath id="clip0_0_3730">
<rect width="24.7233" height="24.7233" fill="white" transform="scale(1.01119)"/>
</clipPath>
</defs>
</svg>
