<svg width="26" height="26" viewBox="0 0 26 26" fill="none" xmlns="http://www.w3.org/2000/svg">
<path fill-rule="evenodd" clip-rule="evenodd" d="M16.7916 15.1669H15.9358L15.6325 14.8744C16.6941 13.6394 17.3333 12.0361 17.3333 10.292C17.3333 6.40283 14.1808 3.25037 10.2917 3.25037C6.40258 3.25037 3.25012 6.40283 3.25012 10.292C3.25012 14.1811 6.40258 17.3335 10.2917 17.3335C12.0359 17.3335 13.6392 16.6944 14.8741 15.6327L15.1666 15.936V16.7919L20.5832 22.1976L22.1974 20.5835L16.7916 15.1669ZM10.2917 15.1669C7.59423 15.1669 5.41675 12.9894 5.41675 10.292C5.41675 7.59449 7.59422 5.41701 10.2917 5.41701C12.9892 5.41701 15.1666 7.59448 15.1666 10.292C15.1666 12.9894 12.9892 15.1669 10.2917 15.1669Z" fill="#22211E"/>
</svg>
