<svg width="28" height="28" viewBox="0 0 28 28" fill="none" xmlns="http://www.w3.org/2000/svg">
<path fill-rule="evenodd" clip-rule="evenodd" d="M23.7514 20.138V21.161C23.7514 22.2863 22.8035 23.207 21.6449 23.207H6.89942C5.73031 23.207 4.79292 22.2863 4.79292 21.161V6.83893C4.79292 5.71362 5.73031 4.79292 6.89942 4.79292H21.6449C22.8035 4.79292 23.7514 5.71362 23.7514 6.83893V7.86193H14.2722C13.103 7.86193 12.1657 8.78263 12.1657 9.90794V18.092C12.1657 19.2173 13.103 20.138 14.2722 20.138H23.7514ZM14.2722 18.092H24.8046V9.90794H14.2722V18.092ZM18.4852 15.5345C17.611 15.5345 16.9053 14.849 16.9053 13.9999C16.9053 13.1508 17.611 12.4654 18.4852 12.4654C19.3593 12.4654 20.065 13.1508 20.065 13.9999C20.065 14.849 19.3593 15.5345 18.4852 15.5345Z" fill="black"/>
</svg>
