<svg width="25" height="25" viewBox="0 0 25 25" fill="none" xmlns="http://www.w3.org/2000/svg">
<g clip-path="url(#clip0_0_2457)">
<path fill-rule="evenodd" clip-rule="evenodd" d="M16.1454 14.5834H15.3225L15.0308 14.3021C16.0517 13.1146 16.6663 11.573 16.6663 9.89587C16.6663 6.15628 13.635 3.12504 9.89543 3.12504C6.15584 3.12504 3.1246 6.15628 3.1246 9.89587C3.1246 13.6355 6.15584 16.6667 9.89543 16.6667C11.5725 16.6667 13.1142 16.0521 14.3017 15.0313L14.5829 15.323V16.1459L19.7913 21.3438L21.3433 19.7917L16.1454 14.5834ZM9.89543 14.5834C7.30168 14.5834 5.20793 12.4896 5.20793 9.89587C5.20793 7.30212 7.30168 5.20837 9.89543 5.20837C12.4892 5.20837 14.5829 7.30212 14.5829 9.89587C14.5829 12.4896 12.4892 14.5834 9.89543 14.5834Z" fill="white"/>
</g>
<defs>
<clipPath id="clip0_0_2457">
<rect width="24.1515" height="24.1515" fill="white" transform="scale(1.03513)"/>
</clipPath>
</defs>
</svg>
