<svg width="24" height="25" viewBox="0 0 24 25" fill="none" xmlns="http://www.w3.org/2000/svg">
<g clip-path="url(#clip0_0_1791)">
<g clip-path="url(#clip1_0_1791)">
<g clip-path="url(#clip2_0_1791)">
<path d="M17.7649 17.5321H15.7793V16.2525H7.83718V17.5321H5.85164V16.2525H1.88056V22.6504H21.7359V16.2525H17.7649V17.5321Z" fill="#171614"/>
<path fill-rule="evenodd" clip-rule="evenodd" d="M19.7504 7.29528H16.7721V4.73611C16.7721 3.32857 15.8786 2.17695 14.7866 2.17695H8.82995C7.7379 2.17695 6.84441 3.32857 6.84441 4.73611V7.29528H3.86611C2.77406 7.29528 1.88056 8.4469 1.88056 9.85445V14.9728H5.85164V12.4136H7.83718V14.9728H15.7793V12.4136H17.7649V14.9728H21.7359V9.85445C21.7359 8.4469 20.8425 7.29528 19.7504 7.29528H19.7504ZM14.7866 7.29528H8.82995V4.73611H14.7866V7.29528Z" fill="#171614"/>
</g>
</g>
</g>
<defs>
<clipPath id="clip0_0_1791">
<rect width="23.4058" height="24.2128" fill="white" transform="scale(1.02539)"/>
</clipPath>
<clipPath id="clip1_0_1791">
<rect width="19.3638" height="19.9665" fill="white" transform="translate(1.88056 2.17695) scale(1.02539)"/>
</clipPath>
<clipPath id="clip2_0_1791">
<rect width="19.3638" height="19.9665" fill="white" transform="translate(1.88056 2.17695) scale(1.02539)"/>
</clipPath>
</defs>
</svg>
