<svg width="24" height="24" viewBox="0 0 24 24" fill="none" xmlns="http://www.w3.org/2000/svg">
<g clip-path="url(#clip0_0_2626)">
<path d="M0 0H24V24H0V0Z" fill="black" fill-opacity="0.01"/>
<path fill-rule="evenodd" clip-rule="evenodd" d="M16.0906 4.36321C14.5087 4.36321 12.9905 5.05986 11.9996 6.16073C11.0087 5.05985 9.49048 4.36321 7.90865 4.36321C5.10861 4.36321 2.9086 6.44455 2.9086 9.09353C2.9086 12.3446 5.99954 14.9935 10.6814 19.0186L11.9996 20.1453L13.3178 19.01C17.9997 14.9935 21.0906 12.3446 21.0906 9.09353C21.0906 6.44455 18.8906 4.36321 16.0906 4.36321ZM12.0905 17.7371L11.9996 17.8231L11.9087 17.7371C7.58138 14.0303 4.72681 11.5791 4.72681 9.09353C4.72681 7.37341 6.09046 6.08333 7.90866 6.08333C9.30867 6.08333 10.6723 6.93479 11.1542 8.11307H12.8542C13.3269 6.93479 14.6906 6.08333 16.0906 6.08333C17.9088 6.08333 19.2724 7.37341 19.2724 9.09353C19.2724 11.5791 16.4178 14.0303 12.0905 17.7371Z" fill="#171614"/>
</g>
<defs>
<clipPath id="clip0_0_2626">
<rect width="23.7953" height="23.7953" fill="white" transform="scale(1.0086)"/>
</clipPath>
</defs>
</svg>
