<svg width="24" height="25" viewBox="0 0 24 25" fill="none" xmlns="http://www.w3.org/2000/svg">
<g clip-path="url(#clip0_0_1188)">
<g clip-path="url(#clip1_0_1188)">
<g clip-path="url(#clip2_0_1188)">
<path d="M17.7652 17.5324H15.7796V16.2528H7.83733V17.5324H5.85174V16.2528H1.88059V22.6508H21.7364V16.2528H17.7652V17.5324Z" fill="#171614"/>
<path fill-rule="evenodd" clip-rule="evenodd" d="M19.7508 7.29538H16.7724V4.73616C16.7724 3.32859 15.8789 2.17695 14.7869 2.17695H8.83012C7.73805 2.17695 6.84453 3.32859 6.84453 4.73616V7.29538H3.86617C2.7741 7.29538 1.88059 8.44703 1.88059 9.8546V14.973H5.85174V12.4138H7.83733V14.973H15.7796V12.4138H17.7652V14.973H21.7364V9.8546C21.7364 8.44703 20.8429 7.29538 19.7508 7.29538H19.7508ZM14.7869 7.29538H8.83012V4.73616H14.7869V7.29538Z" fill="#171614"/>
</g>
</g>
</g>
<defs>
<clipPath id="clip0_0_1188">
<rect width="23.4058" height="24.2128" fill="white" transform="scale(1.02541)"/>
</clipPath>
<clipPath id="clip1_0_1188">
<rect width="19.3638" height="19.9665" fill="white" transform="translate(1.88059 2.17695) scale(1.02541)"/>
</clipPath>
<clipPath id="clip2_0_1188">
<rect width="19.3638" height="19.9665" fill="white" transform="translate(1.88059 2.17695) scale(1.02541)"/>
</clipPath>
</defs>
</svg>
