<svg width="25" height="25" viewBox="0 0 25 25" fill="none" xmlns="http://www.w3.org/2000/svg">
<g clip-path="url(#clip0_0_1805)">
<path fill-rule="evenodd" clip-rule="evenodd" d="M12.4995 2.99408C7.25254 2.99408 2.99414 7.25248 2.99414 12.4994C2.99414 17.7464 7.25254 22.0048 12.4995 22.0048C17.7464 22.0048 22.0048 17.7464 22.0048 12.4994C22.0048 7.25248 17.7464 2.99408 12.4995 2.99408ZM12.4995 18.6779C11.7106 18.6779 11.0737 18.0411 11.0737 17.2521H13.9253C13.9253 18.0411 13.2884 18.6779 12.4995 18.6779ZM17.2522 16.3016H7.74681V15.351L8.69734 14.4005V11.9196C8.69734 9.90448 9.67639 8.19352 11.549 7.74676V7.27149C11.549 6.72968 11.9577 6.32096 12.4995 6.32096C13.0413 6.32096 13.45 6.72969 13.45 7.27149V7.74676C15.3226 8.19352 16.3016 9.91398 16.3016 11.9196V14.4005L17.2522 15.351L17.2522 16.3016Z" fill="#171614"/>
</g>
<defs>
<clipPath id="clip0_0_1805">
<rect width="24.7233" height="24.7233" fill="white" transform="scale(1.01119)"/>
</clipPath>
</defs>
</svg>
