<svg width="25" height="25" viewBox="0 0 25 25" fill="none" xmlns="http://www.w3.org/2000/svg">
<g clip-path="url(#clip0_0_1631)">
<path fill-rule="evenodd" clip-rule="evenodd" d="M16.1458 14.5834H15.3229L15.0313 14.3021C16.0521 13.1146 16.6667 11.573 16.6667 9.89591C16.6667 6.15633 13.6354 3.12509 9.89586 3.12509C6.15628 3.12509 3.12505 6.15633 3.12505 9.89591C3.12505 13.6355 6.15628 16.6667 9.89586 16.6667C11.5729 16.6667 13.1146 16.0521 14.3021 15.0313L14.5833 15.323V16.1459L19.7917 21.3438L21.3437 19.7917L16.1458 14.5834ZM9.89586 14.5834C7.30212 14.5834 5.20838 12.4896 5.20838 9.89591C5.20838 7.30217 7.30212 5.20842 9.89586 5.20842C12.4896 5.20842 14.5833 7.30217 14.5833 9.89591C14.5833 12.4896 12.4896 14.5834 9.89586 14.5834Z" fill="white"/>
</g>
<defs>
<clipPath id="clip0_0_1631">
<rect width="24.1515" height="24.1515" fill="white" transform="scale(1.03513)"/>
</clipPath>
</defs>
</svg>
