<svg width="24" height="24" viewBox="0 0 24 24" fill="none" xmlns="http://www.w3.org/2000/svg">
<g clip-path="url(#clip0_0_1515)">
<path d="M0 0H23.9999V23.9999H0V0Z" fill="black" fill-opacity="0.01"/>
<path fill-rule="evenodd" clip-rule="evenodd" d="M16.0905 4.36318C14.5086 4.36318 12.9905 5.05983 11.9995 6.1607C11.0086 5.05982 9.49043 4.36318 7.90861 4.36318C5.10859 4.36318 2.90858 6.44452 2.90858 9.09349C2.90858 12.3445 5.99951 14.9935 10.6814 19.0185L11.9995 20.1452L13.3177 19.0099C17.9996 14.9935 21.0905 12.3445 21.0905 9.09349C21.0905 6.44452 18.8905 4.36318 16.0905 4.36318ZM12.0905 17.737L11.9996 17.823L11.9086 17.737C7.58134 14.0302 4.72678 11.579 4.72678 9.09349C4.72678 7.37337 6.09043 6.0833 7.90862 6.0833C9.30862 6.0833 10.6723 6.93475 11.1541 8.11303H12.8541C13.3268 6.93475 14.6905 6.0833 16.0905 6.0833C17.9087 6.0833 19.2723 7.37337 19.2723 9.09349C19.2723 11.579 16.4178 14.0302 12.0905 17.737Z" fill="#171614"/>
</g>
<defs>
<clipPath id="clip0_0_1515">
<rect width="23.7953" height="23.7953" fill="white" transform="scale(1.0086)"/>
</clipPath>
</defs>
</svg>
