<svg width="26" height="26" viewBox="0 0 26 26" fill="none" xmlns="http://www.w3.org/2000/svg">
<g clip-path="url(#clip0_0_2643)">
<path d="M18.9278 6.66013V18.8109C18.9278 21.146 16.4621 23.0373 13.4178 23.0373C10.3736 23.0373 7.90784 21.146 7.90784 18.8109V5.60353C7.90784 4.14543 9.45064 2.96205 11.3516 2.96205C13.2525 2.96205 14.7953 4.14543 14.7953 5.60353V16.6977C14.7953 17.2789 14.1755 17.7543 13.4178 17.7543C12.6602 17.7543 12.0403 17.2789 12.0403 16.6977V6.66013H9.9741V16.6977C9.9741 18.1558 11.5169 19.3392 13.4178 19.3392C15.3188 19.3392 16.8616 18.1558 16.8616 16.6977V5.60353C16.8616 3.26846 14.3959 1.37716 11.3516 1.37716C8.30731 1.37716 5.84159 3.26846 5.84159 5.60353V18.8109C5.84159 22.023 9.23024 24.6222 13.4178 24.6222C17.6054 24.6222 20.9941 22.023 20.9941 18.8109V6.66013H18.9278Z" fill="black"/>
</g>
<defs>
<clipPath id="clip0_0_2643">
<rect width="25.1664" height="25.1664" fill="white" transform="scale(1.03312)"/>
</clipPath>
</defs>
</svg>
