<svg width="26" height="26" viewBox="0 0 26 26" fill="none" xmlns="http://www.w3.org/2000/svg">
<g clip-path="url(#clip0_0_1458)">
<path fill-rule="evenodd" clip-rule="evenodd" d="M16.7923 15.1671H15.9365L15.6332 14.8746C16.6948 13.6396 17.334 12.0362 17.334 10.2921C17.334 6.40291 14.1815 3.25041 10.2923 3.25041C6.40316 3.25041 3.25066 6.40291 3.25066 10.2921C3.25066 14.1812 6.40316 17.3337 10.2923 17.3337C12.0365 17.3337 13.6398 16.6946 14.8748 15.6329L15.1673 15.9362V16.7921L20.584 22.1979L22.1981 20.5837L16.7923 15.1671ZM10.2923 15.1671C7.59482 15.1671 5.41732 12.9896 5.41732 10.2921C5.41732 7.59458 7.59481 5.41708 10.2923 5.41708C12.9898 5.41708 15.1673 7.59457 15.1673 10.2921C15.1673 12.9896 12.9898 15.1671 10.2923 15.1671Z" fill="#22211E"/>
</g>
<defs>
<clipPath id="clip0_0_1458">
<rect width="25.4206" height="25.4206" fill="white" transform="scale(1.02279)"/>
</clipPath>
</defs>
</svg>
