<svg width="22" height="22" viewBox="0 0 22 22" fill="none" xmlns="http://www.w3.org/2000/svg">
<g clip-path="url(#clip0_0_1574)">
<path fill-rule="evenodd" clip-rule="evenodd" d="M14.2085 12.8335H13.4843L13.2276 12.586C14.126 11.541 14.6668 10.1843 14.6668 8.70848C14.6668 5.41763 11.9993 2.75012 8.70848 2.75012C5.41763 2.75012 2.75012 5.41763 2.75012 8.70848C2.75012 11.9993 5.41763 14.6668 8.70848 14.6668C10.1843 14.6668 11.541 14.126 12.586 13.2276L12.8335 13.4843V14.2085L17.4168 18.7827L18.7827 17.4168L14.2085 12.8335ZM8.70848 12.8335C6.42597 12.8335 4.58347 10.991 4.58347 8.70848C4.58347 6.42597 6.42597 4.58347 8.70848 4.58347C10.991 4.58347 12.8335 6.42597 12.8335 8.70848C12.8335 10.991 10.991 12.8335 8.70848 12.8335Z" fill="#22211E"/>
</g>
<defs>
<clipPath id="clip0_0_1574">
<rect width="21.5752" height="21.5752" fill="white" transform="scale(1.01969)"/>
</clipPath>
</defs>
</svg>
