<svg width="24" height="24" viewBox="0 0 24 24" fill="none" xmlns="http://www.w3.org/2000/svg">
<g clip-path="url(#clip0_0_3725)">
<path d="M0 0H23.9999V23.9999H0V0Z" fill="black" fill-opacity="0.01"/>
<path fill-rule="evenodd" clip-rule="evenodd" d="M16.0907 4.36324C14.5089 4.36324 12.9907 5.05989 11.9998 6.16076C11.0089 5.05988 9.49068 4.36324 7.90885 4.36324C5.10883 4.36324 2.90883 6.44458 2.90883 9.09355C2.90883 12.3446 5.99976 14.9935 10.6816 19.0186L11.9998 20.1453L13.318 19.01C17.9998 14.9935 21.0907 12.3446 21.0907 9.09355C21.0907 6.44458 18.8907 4.36324 16.0907 4.36324ZM12.0907 17.7371L11.9998 17.8231L11.9089 17.7371C7.58158 14.0303 4.72703 11.5791 4.72703 9.09355C4.72703 7.37344 6.09067 6.08336 7.90886 6.08336C9.30887 6.08336 10.6725 6.93482 11.1543 8.11309H12.8544C13.3271 6.93482 14.6907 6.08336 16.0907 6.08336C17.9089 6.08336 19.2726 7.37344 19.2726 9.09355C19.2726 11.5791 16.418 14.0303 12.0907 17.7371Z" fill="#171614"/>
</g>
<defs>
<clipPath id="clip0_0_3725">
<rect width="23.7953" height="23.7953" fill="white" transform="scale(1.0086)"/>
</clipPath>
</defs>
</svg>
