<svg width="24" height="25" viewBox="0 0 24 25" fill="none" xmlns="http://www.w3.org/2000/svg">
<g clip-path="url(#clip0_0_1506)">
<g clip-path="url(#clip1_0_1506)">
<g clip-path="url(#clip2_0_1506)">
<path d="M17.7649 17.532H15.7793V16.2524H7.83716V17.532H5.85162V16.2524H1.88055V22.6503H21.7359V16.2524H17.7649V17.532Z" fill="#171614"/>
<path fill-rule="evenodd" clip-rule="evenodd" d="M19.7504 7.29521H16.7721V4.73605C16.7721 3.32851 15.8786 2.17689 14.7865 2.17689H8.82993C7.73788 2.17689 6.84439 3.32851 6.84439 4.73605V7.29521H3.86609C2.77404 7.29521 1.88055 8.44684 1.88055 9.85438V14.9727H5.85162V12.4135H7.83716V14.9727H15.7793V12.4135H17.7649V14.9727H21.7359V9.85438C21.7359 8.44684 20.8424 7.29521 19.7504 7.29521H19.7504ZM14.7865 7.29521H8.82993V4.73605H14.7865V7.29521Z" fill="#171614"/>
</g>
</g>
</g>
<defs>
<clipPath id="clip0_0_1506">
<rect width="23.4058" height="24.2128" fill="white" transform="scale(1.02539)"/>
</clipPath>
<clipPath id="clip1_0_1506">
<rect width="19.3638" height="19.9665" fill="white" transform="translate(1.88055 2.17689) scale(1.02539)"/>
</clipPath>
<clipPath id="clip2_0_1506">
<rect width="19.3638" height="19.9665" fill="white" transform="translate(1.88055 2.17689) scale(1.02539)"/>
</clipPath>
</defs>
</svg>
