<svg width="24" height="25" viewBox="0 0 24 25" fill="none" xmlns="http://www.w3.org/2000/svg">
<g clip-path="url(#clip0_0_3716)">
<g clip-path="url(#clip1_0_3716)">
<g clip-path="url(#clip2_0_3716)">
<path d="M17.7649 17.5321H15.7793V16.2525H7.83716V17.5321H5.85162V16.2525H1.88055V22.6504H21.7359V16.2525H17.7649V17.5321Z" fill="#171614"/>
<path fill-rule="evenodd" clip-rule="evenodd" d="M19.7504 7.29528H16.7721V4.73611C16.7721 3.32857 15.8786 2.17695 14.7865 2.17695H8.82993C7.73788 2.17695 6.84439 3.32857 6.84439 4.73611V7.29528H3.86609C2.77404 7.29528 1.88055 8.4469 1.88055 9.85444V14.9728H5.85162V12.4136H7.83716V14.9728H15.7793V12.4136H17.7649V14.9728H21.7359V9.85444C21.7359 8.4469 20.8424 7.29528 19.7504 7.29528H19.7504ZM14.7865 7.29528H8.82993V4.73611H14.7865V7.29528Z" fill="#171614"/>
</g>
</g>
</g>
<defs>
<clipPath id="clip0_0_3716">
<rect width="23.4058" height="24.2128" fill="white" transform="scale(1.02539)"/>
</clipPath>
<clipPath id="clip1_0_3716">
<rect width="19.3638" height="19.9665" fill="white" transform="translate(1.88055 2.17695) scale(1.02539)"/>
</clipPath>
<clipPath id="clip2_0_3716">
<rect width="19.3638" height="19.9665" fill="white" transform="translate(1.88055 2.17695) scale(1.02539)"/>
</clipPath>
</defs>
</svg>
