<svg width="25" height="25" viewBox="0 0 25 25" fill="none" xmlns="http://www.w3.org/2000/svg">
<g clip-path="url(#clip0_0_942)">
<path fill-rule="evenodd" clip-rule="evenodd" d="M12.4995 2.99409C7.25251 2.99409 2.99409 7.25251 2.99409 12.4995C2.99409 17.7465 7.25251 22.0049 12.4995 22.0049C17.7465 22.0049 22.0049 17.7465 22.0049 12.4995C22.0049 7.25251 17.7465 2.99409 12.4995 2.99409ZM12.4995 18.678C11.7105 18.678 11.0737 18.0411 11.0737 17.2522H13.9253C13.9253 18.0411 13.2884 18.678 12.4995 18.678ZM17.2522 16.3016H7.74679V15.3511L8.69732 14.4006V11.9197C8.69732 9.90452 9.67638 8.19355 11.5489 7.7468V7.27152C11.5489 6.72971 11.9577 6.32099 12.4995 6.32099C13.0413 6.32099 13.45 6.72972 13.45 7.27152V7.7468C15.3226 8.19355 16.3016 9.91403 16.3016 11.9197V14.4006L17.2522 15.3511L17.2522 16.3016Z" fill="#171614"/>
</g>
<defs>
<clipPath id="clip0_0_942">
<rect width="24.7233" height="24.7233" fill="white" transform="scale(1.0112)"/>
</clipPath>
</defs>
</svg>
