<svg width="425" height="55" viewBox="0 0 425 55" fill="none" xmlns="http://www.w3.org/2000/svg">
<rect width="425" height="55" rx="27.5" fill="#22211E"/>
<g clip-path="url(#clip0_0_3319)">
<rect x="335" y="37.5864" width="2.55026" height="6.7004" rx="1.27513" fill="white"/>
<rect x="338.547" y="35.4302" width="2.55026" height="8.85647" rx="1.27513" fill="white"/>
<rect x="342.268" y="33.2744" width="2.55026" height="11.0125" rx="1.27513" fill="white"/>
<rect x="345.92" y="31.2681" width="2.55026" height="13.0186" rx="1.27513" fill="white"/>
</g>
<path d="M384.58 43.4509H366.08C364.9 43.4509 363.95 42.5009 363.95 41.3209V36.5709C363.95 35.3909 364.9 34.4409 366.08 34.4409H384.58C385.76 34.4409 386.71 35.3909 386.71 36.5709V41.3209C386.7 42.491 385.75 43.4509 384.58 43.4509Z" stroke="white" stroke-width="0.75"/>
<path d="M361.61 40.8108V40.8108C361.28 40.8108 361 40.5408 361 40.2008V37.6808C361 37.3508 361.27 37.0708 361.61 37.0708V37.0708C361.94 37.0708 362.22 37.3408 362.22 37.6808V40.2008C362.22 40.5408 361.95 40.8108 361.61 40.8108Z" fill="white"/>
<defs>
<clipPath id="clip0_0_3319">
<rect width="13.4701" height="13.0189" fill="white" transform="translate(335 31.2681)"/>
</clipPath>
</defs>
</svg>
