<svg width="28" height="28" viewBox="0 0 28 28" fill="none" xmlns="http://www.w3.org/2000/svg">
<g clip-path="url(#clip0_0_1208)">
<path fill-rule="evenodd" clip-rule="evenodd" d="M23.7515 20.1381V21.1611C23.7515 22.2864 22.8036 23.2071 21.645 23.2071H6.89945C5.73033 23.2071 4.79294 22.2864 4.79294 21.1611V6.83896C4.79294 5.71365 5.73033 4.79294 6.89945 4.79294H21.645C22.8036 4.79294 23.7515 5.71365 23.7515 6.83896V7.86196H14.2722C13.1031 7.86196 12.1657 8.78267 12.1657 9.90798V18.0921C12.1657 19.2174 13.1031 20.1381 14.2722 20.1381H23.7515ZM14.2722 18.0921H24.8048V9.90798H14.2722V18.0921ZM18.4852 15.5345C17.611 15.5345 16.9054 14.8491 16.9054 14C16.9054 13.1509 17.611 12.4655 18.4852 12.4655C19.3594 12.4655 20.0651 13.1509 20.0651 14C20.0651 14.8491 19.3594 15.5345 18.4852 15.5345Z" fill="black"/>
</g>
<defs>
<clipPath id="clip0_0_1208">
<rect width="27.0189" height="27.0189" fill="white" transform="scale(1.03631)"/>
</clipPath>
</defs>
</svg>
