<svg width="24" height="24" viewBox="0 0 24 24" fill="none" xmlns="http://www.w3.org/2000/svg">
<g clip-path="url(#clip0_0_937)">
<path d="M0 0H23.9999V23.9999H0V0Z" fill="black" fill-opacity="0.01"/>
<path fill-rule="evenodd" clip-rule="evenodd" d="M16.0907 4.36312C14.5089 4.36312 12.9907 5.05977 11.9998 6.16063C11.0089 5.05976 9.49068 4.36312 7.90885 4.36312C5.10883 4.36312 2.90883 6.44445 2.90883 9.09343C2.90883 12.3444 5.99976 14.9934 10.6816 19.0185L11.9998 20.1451L13.318 19.0099C17.9998 14.9934 21.0907 12.3444 21.0907 9.09343C21.0907 6.44445 18.8907 4.36312 16.0907 4.36312ZM12.0907 17.737L11.9998 17.823L11.9089 17.737C7.58158 14.0301 4.72703 11.579 4.72703 9.09343C4.72703 7.37331 6.09067 6.08323 7.90886 6.08323C9.30887 6.08323 10.6725 6.93469 11.1543 8.11297H12.8544C13.3271 6.93469 14.6907 6.08323 16.0907 6.08323C17.9089 6.08323 19.2726 7.37331 19.2726 9.09343C19.2726 11.579 16.418 14.0301 12.0907 17.737Z" fill="#171614"/>
</g>
<defs>
<clipPath id="clip0_0_937">
<rect width="23.7953" height="23.7953" fill="white" transform="scale(1.0086)"/>
</clipPath>
</defs>
</svg>
