<svg width="26" height="26" viewBox="0 0 26 26" fill="none" xmlns="http://www.w3.org/2000/svg">
<path d="M18.9275 6.66009V18.8108C18.9275 21.1459 16.4618 23.0372 13.4175 23.0372C10.3733 23.0372 7.90755 21.1459 7.90755 18.8108V5.6035C7.90755 4.14541 9.45034 2.96203 11.3513 2.96203C13.2522 2.96203 14.795 4.14541 14.795 5.6035V16.6977C14.795 17.2788 14.1751 17.7542 13.4175 17.7542C12.6599 17.7542 12.04 17.2788 12.04 16.6977V6.66009H9.9738V16.6977C9.9738 18.1557 11.5166 19.3391 13.4175 19.3391C15.3185 19.3391 16.8613 18.1558 16.8613 16.6977V5.6035C16.8613 3.26845 14.3955 1.37716 11.3513 1.37716C8.30702 1.37716 5.84131 3.26845 5.84131 5.6035V18.8108C5.84131 22.0229 9.22994 24.6221 13.4175 24.6221C17.6051 24.6221 20.9937 22.0229 20.9937 18.8108V6.66009H18.9275Z" fill="black"/>
</svg>
