<svg width="25" height="25" viewBox="0 0 25 25" fill="none" xmlns="http://www.w3.org/2000/svg">
<g clip-path="url(#clip0_0_1520)">
<path fill-rule="evenodd" clip-rule="evenodd" d="M12.4994 2.99414C7.25248 2.99414 2.99408 7.25254 2.99408 12.4995C2.99408 17.7464 7.25248 22.0048 12.4994 22.0048C17.7464 22.0048 22.0048 17.7464 22.0048 12.4995C22.0048 7.25254 17.7464 2.99414 12.4994 2.99414ZM12.4994 18.678C11.7105 18.678 11.0736 18.0411 11.0736 17.2522H13.9252C13.9252 18.0411 13.2884 18.678 12.4994 18.678ZM17.2521 16.3016H7.74675V15.3511L8.69728 14.4006V11.9197C8.69728 9.90454 9.67633 8.19358 11.5489 7.74682V7.27155C11.5489 6.72974 11.9576 6.32102 12.4994 6.32102C13.0412 6.32102 13.4499 6.72975 13.4499 7.27155V7.74682C15.3225 8.19358 16.3016 9.91404 16.3016 11.9197V14.4006L17.2521 15.3511L17.2521 16.3016Z" fill="#171614"/>
</g>
<defs>
<clipPath id="clip0_0_1520">
<rect width="24.7233" height="24.7233" fill="white" transform="scale(1.01119)"/>
</clipPath>
</defs>
</svg>
