<svg width="25" height="25" viewBox="0 0 25 25" fill="none" xmlns="http://www.w3.org/2000/svg">
<path fill-rule="evenodd" clip-rule="evenodd" d="M12.4992 2.9941C7.25237 2.9941 2.99404 7.25243 2.99404 12.4993C2.99404 17.7462 7.25237 22.0045 12.4992 22.0045C17.7461 22.0045 22.0045 17.7462 22.0045 12.4993C22.0045 7.25243 17.7461 2.9941 12.4992 2.9941ZM12.4992 18.6777C11.7103 18.6777 11.0735 18.0408 11.0735 17.2519H13.925C13.925 18.0408 13.2882 18.6777 12.4992 18.6777ZM17.2518 16.3014H7.74663V15.3509L8.69715 14.4003V11.9195C8.69715 9.90439 9.67618 8.19345 11.5487 7.74671V7.27144C11.5487 6.72964 11.9574 6.32092 12.4992 6.32092C13.041 6.32092 13.4498 6.72965 13.4498 7.27144V7.74671C15.3223 8.19345 16.3013 9.91389 16.3013 11.9195V14.4004L17.2518 15.3509L17.2518 16.3014Z" fill="#171614"/>
</svg>
